<svg xmlns="http://www.w3.org/2000/svg" width="30" height="30" viewBox="0 0 30 30"><defs><style>.a{fill:#aed16d;}</style></defs><path class="a" d="M11.776,17.5a1.118,1.118,0,0,1-.485-.111l-3.555-1.7a1.1,1.1,0,0,1-.624-.983V9.55L.274,1.811A1.07,1.07,0,0,1,.1.65,1.1,1.1,0,0,1,1.113,0H18.886A1.1,1.1,0,0,1,19.9.65a1.07,1.07,0,0,1-.177,1.161L12.888,9.55V16.4A1.1,1.1,0,0,1,11.776,17.5ZM3.552,2.187,9.061,8.423a1.085,1.085,0,0,1,.272.718V14.02l1.333.638V9.141a1.081,1.081,0,0,1,.273-.718l5.509-6.236Z" transform="translate(5 6.25)"/></svg>