<svg height="35.857" viewBox="0 0 35.857 35.857" width="35.857" xmlns="http://www.w3.org/2000/svg"><path d="m28.885 35.857h-5.977a1 1 0 0 1 -1-1v-11.948a1 1 0 0 0 -1-1h-5.968a1 1 0 0 0 -.994 1v11.952a1 1 0 0 1 -1 1h-5.973a4.985 4.985 0 0 1 -4.98-4.98v-15.471l-.363.3a1 1 0 0 1 -1.4-.137.994.994 0 0 1 .135-1.4l16.935-13.945a.992.992 0 0 1 1.267 0l16.927 13.943a1 1 0 0 1 .358.674 1 1 0 0 1 -.992 1.092 1 1 0 0 1 -.633-.227l-.363-.3v15.467a4.985 4.985 0 0 1 -4.979 4.98zm-13.945-15.936h5.976a2.991 2.991 0 0 1 2.984 2.988v10.955h4.98a2.99 2.99 0 0 0 2.987-2.987v-16.932a1.061 1.061 0 0 1 .014-.163l-13.952-11.494-13.957 11.494a1.074 1.074 0 0 1 .012.163v16.932a2.991 2.991 0 0 0 2.989 2.987h4.98v-10.955a2.99 2.99 0 0 1 2.987-2.988z" fill="#e2a535"/></svg>