<svg height="33.073" viewBox="0 0 37.797 33.073" width="37.797" xmlns="http://www.w3.org/2000/svg"><path d="m37.762 42.345-2.362-9.445a1.18 1.18 0 0 0 -1.146-.9h-30.71a1.18 1.18 0 0 0 -1.146.9l-2.363 9.445a1.156 1.156 0 0 0 -.035.286 5.991 5.991 0 0 0 2.362 4.8v16.461a1.182 1.182 0 0 0 1.181 1.181h11.812a1.182 1.182 0 0 0 1.181-1.181v-8.269h4.725v8.268a1.182 1.182 0 0 0 1.181 1.181h11.812a1.182 1.182 0 0 0 1.181-1.181v-16.463a5.991 5.991 0 0 0 2.362-4.8 1.155 1.155 0 0 0 -.035-.283zm-4.689 20.365h-9.45v-8.268a1.182 1.182 0 0 0 -1.181-1.181h-7.087a1.182 1.182 0 0 0 -1.181 1.181v8.268h-9.449v-14.268a5.239 5.239 0 0 0 .886.094 5.509 5.509 0 0 0 4.429-2.284 5.436 5.436 0 0 0 8.859 0 5.436 5.436 0 0 0 8.859 0 5.509 5.509 0 0 0 4.429 2.284 5.239 5.239 0 0 0 .886-.094zm-.886-16.536a3.41 3.41 0 0 1 -3.248-3.544 1.181 1.181 0 0 0 -2.362 0 3.41 3.41 0 0 1 -3.248 3.544 3.41 3.41 0 0 1 -3.248-3.544 1.181 1.181 0 0 0 -2.362 0 3.41 3.41 0 0 1 -3.248 3.544 3.41 3.41 0 0 1 -3.248-3.544 1.181 1.181 0 0 0 -2.362 0 3.41 3.41 0 0 1 -3.248 3.544 3.4 3.4 0 0 1 -3.246-3.406l2.1-8.405h28.866l2.1 8.405a3.4 3.4 0 0 1 -3.246 3.406z" fill="#e2a535" transform="translate(0 -32)"/></svg>