<svg height="36" viewBox="0 0 36 36" width="36" xmlns="http://www.w3.org/2000/svg"><g fill="#e2a535"><path d="m35.692.309a1.055 1.055 0 0 0 -1.492 0l-3.071 3.072a3.172 3.172 0 0 0 -.6-.214l-9.543-2.359a3.18 3.18 0 0 0 -3 .832l-17.06 17.027a3.168 3.168 0 0 0 0 4.475l11.933 11.933a3.168 3.168 0 0 0 4.475 0l17.027-17.055a3.18 3.18 0 0 0 .832-3l-2.358-9.551a3.179 3.179 0 0 0 -.214-.6l3.071-3.069a1.055 1.055 0 0 0 0-1.491zm-2.545 15.218a1.06 1.06 0 0 1 -.277 1l-17.027 17.057a1.056 1.056 0 0 1 -1.492 0l-11.933-11.933a1.056 1.056 0 0 1 0-1.492l17.055-17.027a1.061 1.061 0 0 1 .748-.309 1.046 1.046 0 0 1 .253.031l8.967 2.214-2.541 2.541a3.164 3.164 0 1 0 1.493 1.491l2.54-2.54zm-6.863-4.318a1.054 1.054 0 1 1 0-1.492 1.056 1.056 0 0 1 0 1.492z" transform="translate(-.001 -.001)"/><path d="m175.112 168.4a3.164 3.164 0 1 0 0 4.475 3.168 3.168 0 0 0 0-4.475zm-1.492 2.983a1.055 1.055 0 1 1 0-1.492 1.056 1.056 0 0 1 .001 1.488z" transform="translate(-157.779 -155.696)"/><path d="m196.326 316.865a3.164 3.164 0 1 0 0 4.475 3.162 3.162 0 0 0 0-4.475zm-1.492 2.983a1.055 1.055 0 1 1 0-1.492 1.054 1.054 0 0 1 0 1.492z" transform="translate(-177.502 -293.722)"/><path d="m130.363 262.029a1.055 1.055 0 0 0 -1.165-.932l-13.425 1.492a1.055 1.055 0 0 0 .115 2.1 1.067 1.067 0 0 0 .118-.007l13.425-1.492a1.055 1.055 0 0 0 .932-1.161z" transform="translate(-106.761 -242.733)"/></g></svg>